<svg xmlns="http://www.w3.org/2000/svg" viewBox="0 0 296.96 300.95"><title>Asset 2</title><g id="Layer_2" data-name="Layer 2"><g id="Layer_1-2" data-name="Layer 1"><path fill="#FFF" d="M297,195.23H232.87l-10.16-63.9-37.56,63.45h-7c-4.27-7.35-6-18.1-6-24.68,0-10.92.79-21.56.79-35.41,0-18.38-5.4-28.24-19.81-31.7v-.54c30.65-4.27,44.55-24.55,44.55-53.1C197.7,8.79,170.71,0,135.35,0H40.21L0,190.41H50.56l14.63-69.29H98.8c17.93,0,25.26,8.78,25.26,25.56,0,12.78-1.33,22.89-1.33,32.72,0,3.64.83,12.1,3.28,15.38,0,0,36.55,38.56,36.55,38.56L131.12,301l67.25-40,50.11,38.5-9.36-63.78Zm-183-109.75H73.73l9.62-45.91h37.39c13.31,0,27.16,3.47,27.16,19.76C147.9,79.86,132.13,85.48,113.91,85.48Zm85.15,164.29-46.83,27.81,21.43-46L147.6,204.08h42.86l27.12-45.81,7.34,46.27h42.53l-38.34,26.82L236,278.14Z"/></g></g></svg>